<?xml version="1.0" encoding="UTF-8" standalone="no"?>
<!-- Created with Inkscape (http://www.inkscape.org/) -->

<svg
   xmlns:dc="http://purl.org/dc/elements/1.1/"
   xmlns:cc="http://creativecommons.org/ns#"
   xmlns:rdf="http://www.w3.org/1999/02/22-rdf-syntax-ns#"
   xmlns:svg="http://www.w3.org/2000/svg"
   xmlns="http://www.w3.org/2000/svg"
   xmlns:xlink="http://www.w3.org/1999/xlink"
   xmlns:sodipodi="http://sodipodi.sourceforge.net/DTD/sodipodi-0.dtd"
   xmlns:inkscape="http://www.inkscape.org/namespaces/inkscape"
   width="32px"
   height="32px"
   viewBox="0 0 32 32"
   version="1.1"
   id="SVGRoot"
   sodipodi:docname="derive2.svg"
   inkscape:export-filename="/home/mirek/neuralympian/geo_logic/icons/derive.png"
   inkscape:export-xdpi="96"
   inkscape:export-ydpi="96"
   inkscape:version="0.92.4 5da689c313, 2019-01-14">
  <defs
     id="defs6504">
    <linearGradient
       inkscape:collect="always"
       id="linearGradient864">
      <stop
         style="stop-color:#50c700;stop-opacity:1"
         offset="0"
         id="stop860" />
      <stop
         style="stop-color:#061600;stop-opacity:1"
         offset="1"
         id="stop862" />
    </linearGradient>
    <radialGradient
       inkscape:collect="always"
       xlink:href="#linearGradient864"
       id="radialGradient866"
       cx="8.171609"
       cy="9.6120827"
       fx="8.171609"
       fy="9.6120827"
       r="7.59011"
       gradientTransform="matrix(1,0,0,1.0330604,0,-0.31777958)"
       gradientUnits="userSpaceOnUse" />
  </defs>
  <sodipodi:namedview
     id="base"
     pagecolor="#ffffff"
     bordercolor="#666666"
     borderopacity="1.0"
     inkscape:pageopacity="0.0"
     inkscape:pageshadow="2"
     inkscape:zoom="22.627417"
     inkscape:cx="17.512412"
     inkscape:cy="18.56612"
     inkscape:document-units="px"
     inkscape:current-layer="layer1"
     showgrid="true"
     inkscape:window-width="1592"
     inkscape:window-height="1176"
     inkscape:window-x="124"
     inkscape:window-y="-145"
     inkscape:window-maximized="0"
     inkscape:grid-bbox="true"
     inkscape:snap-global="false">
    <inkscape:grid
       type="xygrid"
       id="grid7060"
       originx="0"
       spacingx="4"
       spacingy="4"
       empspacing="4" />
  </sodipodi:namedview>
  <metadata
     id="metadata6507">
    <rdf:RDF>
      <cc:Work
         rdf:about="">
        <dc:format>image/svg+xml</dc:format>
        <dc:type
           rdf:resource="http://purl.org/dc/dcmitype/StillImage" />
        <dc:title></dc:title>
      </cc:Work>
    </rdf:RDF>
    <rdf:RDF>
      <cc:Work
         rdf:about="">
        <dc:title />
      </cc:Work>
    </rdf:RDF>
  </metadata>
  <g
     inkscape:label="Layer 1"
     inkscape:groupmode="layer"
     id="layer1">
    <path
       style="fill:url(#radialGradient866);fill-opacity:1;stroke:none;stroke-width:1.028;stroke-linecap:square;stroke-linejoin:miter;stroke-miterlimit:4;stroke-dasharray:none;stroke-dashoffset:4.52320004;stroke-opacity:1"
       d="M 7.390625 1.7714844 A 1.893055 1.893055 0 0 0 7.2578125 1.7734375 A 1.893055 1.893055 0 0 0 6.703125 1.8867188 A 1.893055 1.893055 0 0 0 5.5761719 4.3164062 A 1.893055 1.893055 0 0 0 6.3886719 5.2910156 L 1.5605469 7.0625 L 2.953125 10.861328 A 1.893055 1.893055 0 0 0 1.8242188 10.914062 A 1.893055 1.893055 0 0 0 0.69726562 13.34375 A 1.893055 1.893055 0 0 0 3.1269531 14.46875 A 1.893055 1.893055 0 0 0 4.0234375 13.777344 L 5.3710938 17.453125 L 6.9726562 16.865234 A 2.1766803 2.1766803 0 0 1 6.6367188 16.269531 A 2.1766803 2.1766803 0 0 1 7.9316406 13.476562 A 2.1766803 2.1766803 0 0 1 10.724609 14.769531 A 2.1766803 2.1766803 0 0 1 10.853516 15.443359 L 15.761719 13.642578 L 11.951172 3.2519531 L 9.1425781 4.2832031 A 1.893055 1.893055 0 0 0 9.1308594 3.0136719 A 1.893055 1.893055 0 0 0 7.390625 1.7714844 z "
       id="rect8006" />
    <path
       style="fill:#000000;fill-opacity:1;stroke:none;stroke-width:1.02800012;stroke-linecap:square;stroke-linejoin:miter;stroke-miterlimit:4;stroke-dasharray:none;stroke-dashoffset:4.52320004;stroke-opacity:1"
       d="M 9.5175781 16.199219 A 1.893055 1.893055 0 0 0 7.6230469 18.09375 A 1.893055 1.893055 0 0 0 7.9492188 19.150391 L 5.4980469 19.150391 L 5.4980469 23.269531 A 2.1842942 2.1842942 0 0 1 6.6542969 22.9375 A 2.1842942 2.1842942 0 0 1 8.8378906 25.121094 A 2.1842942 2.1842942 0 0 1 6.6542969 27.306641 A 2.1842942 2.1842942 0 0 1 5.4980469 26.972656 L 5.4980469 30.21875 L 16.564453 30.21875 L 16.564453 28.478516 A 2.716428 2.716428 0 0 1 16.111328 28.517578 A 2.716428 2.716428 0 0 1 13.394531 25.800781 A 2.716428 2.716428 0 0 1 16.111328 23.083984 A 2.716428 2.716428 0 0 1 16.564453 23.125 L 16.564453 19.150391 L 11.087891 19.150391 A 1.893055 1.893055 0 0 0 11.410156 18.09375 A 1.893055 1.893055 0 0 0 9.5175781 16.199219 z "
       id="rect7136" />
    <path
       style="fill:#000000;fill-opacity:1;stroke:none;stroke-width:1.02800012;stroke-linecap:square;stroke-linejoin:miter;stroke-miterlimit:4;stroke-dasharray:none;stroke-dashoffset:4.52320004;stroke-opacity:1"
       d="M 17.574219 19.150391 L 17.574219 24.441406 A 1.893055 1.893055 0 0 0 16.3125 23.957031 A 1.893055 1.893055 0 0 0 14.419922 25.849609 A 1.893055 1.893055 0 0 0 16.3125 27.742188 A 1.893055 1.893055 0 0 0 17.574219 27.257812 L 17.574219 30.21875 L 21.121094 30.21875 A 2.1842942 2.1842942 0 0 1 20.681641 28.908203 A 2.1842942 2.1842942 0 0 1 22.865234 26.722656 A 2.1842942 2.1842942 0 0 1 25.050781 28.908203 A 2.1842942 2.1842942 0 0 1 24.609375 30.21875 L 28.642578 30.21875 L 28.642578 25.025391 A 1.893055 1.893055 0 0 0 29.904297 25.509766 A 1.893055 1.893055 0 0 0 31.796875 23.617188 A 1.893055 1.893055 0 0 0 29.904297 21.724609 A 1.893055 1.893055 0 0 0 28.642578 22.208984 L 28.642578 19.150391 L 25.1875 19.150391 A 2.7164283 2.7164283 0 0 1 25.291016 19.886719 A 2.7164283 2.7164283 0 0 1 22.574219 22.603516 A 2.7164283 2.7164283 0 0 1 19.857422 19.886719 A 2.7164283 2.7164283 0 0 1 19.960938 19.150391 L 17.574219 19.150391 z "
       id="rect7107" />
    <path
       style="fill:#000000;fill-opacity:1;stroke:none;stroke-width:1.02800012;stroke-linecap:square;stroke-linejoin:miter;stroke-miterlimit:4;stroke-dasharray:none;stroke-dashoffset:4.52320004;stroke-opacity:1"
       d="M 24.03125 4.5585938 A 1.893055 1.893055 0 0 0 22.136719 6.4511719 A 1.893055 1.893055 0 0 0 22.25 7.0878906 L 17.574219 7.0878906 L 17.574219 18.15625 L 21.431641 18.15625 A 1.893055 1.893055 0 0 0 20.632812 19.697266 A 1.893055 1.893055 0 0 0 22.525391 21.591797 A 1.893055 1.893055 0 0 0 24.419922 19.697266 A 1.893055 1.893055 0 0 0 23.621094 18.15625 L 28.642578 18.15625 L 28.642578 15.701172 A 2.1842942 2.1842942 0 0 1 27.332031 16.142578 A 2.1842942 2.1842942 0 0 1 25.146484 13.957031 A 2.1842942 2.1842942 0 0 1 27.332031 11.773438 A 2.1842942 2.1842942 0 0 1 28.642578 12.214844 L 28.642578 7.0878906 L 25.810547 7.0878906 A 1.893055 1.893055 0 0 0 25.923828 6.4511719 A 1.893055 1.893055 0 0 0 24.03125 4.5585938 z "
       id="circle7111" />
  </g>
</svg>
