<?xml version="1.0" encoding="UTF-8" standalone="no"?>
<!-- Created with Inkscape (http://www.inkscape.org/) -->

<svg
   xmlns:dc="http://purl.org/dc/elements/1.1/"
   xmlns:cc="http://creativecommons.org/ns#"
   xmlns:rdf="http://www.w3.org/1999/02/22-rdf-syntax-ns#"
   xmlns:svg="http://www.w3.org/2000/svg"
   xmlns="http://www.w3.org/2000/svg"
   xmlns:sodipodi="http://sodipodi.sourceforge.net/DTD/sodipodi-0.dtd"
   xmlns:inkscape="http://www.inkscape.org/namespaces/inkscape"
   id="svg2"
   sodipodi:docname="move.svg"
   inkscape:export-filename="/home/mirek/neuralympian/geo_logic/icons/move.png"
   viewBox="0 0 256 256"
   inkscape:export-xdpi="12"
   version="1.1"
   inkscape:export-ydpi="12"
   inkscape:version="0.92.4 5da689c313, 2019-01-14">
  <defs
     id="defs5923" />
  <sodipodi:namedview
     id="base"
     bordercolor="#666666"
     inkscape:pageshadow="2"
     inkscape:window-y="0"
     pagecolor="#ffffff"
     inkscape:showpageshadow="false"
     inkscape:window-maximized="0"
     inkscape:zoom="2"
     inkscape:window-x="0"
     inkscape:window-height="1176"
     showgrid="false"
     borderopacity="1.0"
     inkscape:current-layer="layer1"
     inkscape:cx="138.77718"
     inkscape:cy="103.93537"
     showguides="true"
     inkscape:guide-bbox="true"
     inkscape:window-width="1592"
     inkscape:pageopacity="0.0"
     inkscape:document-units="px" />
  <g
     id="layer1"
     inkscape:label="Layer 1"
     inkscape:groupmode="layer"
     transform="translate(0 -796.36)">
    <g
       id="g5351"
       transform="translate(-21.5,-568.5)">
      <g
         id="g3915-6-3"
         transform="matrix(1.2311,0,0,1.2311,66.255,265.62)">
        <path
           id="path3894-6-5"
           sodipodi:nodetypes="cssc"
           style="fill:#ffffff;stroke:#000000;stroke-width:4.06139994;stroke-linecap:round;stroke-linejoin:round"
           inkscape:connector-curvature="0"
           d="m 89.471,1065.9 c 3.7268,6.1263 -0.48379,10.049 -6.16,12.947 -8.0302,4.0988 -27.898,2.1019 -34.7,-2.0136 -6.2427,-3.777 -9.0128,-9.3495 -6.0403,-14.184" />
        <path
           id="path3112-2-1"
           sodipodi:nodetypes="sssssccsscs"
           style="fill:#ffffff;stroke:#000000;stroke-width:4.06139994;stroke-linecap:round;stroke-linejoin:round"
           inkscape:connector-curvature="0"
           d="m 21.354,1021 c -0.85728,15.682 13.892,40.298 31.364,46.018 9.0217,2.9538 29.326,3.8464 36.494,-1.431 12.273,-9.0365 18.48,-20.686 21.285,-35.088 0.99446,-5.1051 1.707,-10.986 0.95737,-15.702 -3.1898,-20.064 -14.951,-20.048 -19.514,-20.76 -2.7272,-8.7246 -12.699,-15.044 -26.068,-12.391 -0.1029,-10.746 0.22553,-17.365 1.1122,-27.536 1.4832,-17.013 -27.986,-20.845 -26.491,-0.0121 1.0183,14.187 0.02688,25.675 -2.4993,39 -3.4496,1.0381 -15.746,11.529 -16.641,27.901 z" />
        <path
           id="path3882-6-0"
           d="m 63.838,981.04 c 0.0308,10.253 1.2148,18.225 7.2258,26.105 -2.5091,-6.5752 -3.3692,-19.666 -3.1766,-27.939 z"
           sodipodi:nodetypes="cccc"
           style="color:#000000;text-indent:0;text-transform:none;fill:#000000"
           inkscape:connector-curvature="0" />
        <path
           id="path3884-6-5"
           d="m 93.471,992.23 -3.8091,1.4862 c 1.929,5.5768 4.0509,11.842 7.1137,15.183 -1.0804,-2.6051 -2.0771,-11.978 -3.3046,-16.669 z"
           sodipodi:nodetypes="cccc"
           style="color:#000000;text-indent:0;text-transform:none;fill:#000000"
           inkscape:connector-curvature="0" />
        <path
           id="path3886-8-8"
           sodipodi:nodetypes="cc"
           style="fill:none;stroke:#000000;stroke-width:4.06139994;stroke-linecap:round;stroke-linejoin:round"
           inkscape:connector-curvature="0"
           d="m 79.642,1058.3 c 4.0369,-9.6783 3.976,-12.465 5.1951,-17.405" />
        <path
           id="path3888-4-1"
           sodipodi:nodetypes="cc"
           style="fill:none;stroke:#000000;stroke-width:4.06139994;stroke-linecap:round;stroke-linejoin:round"
           inkscape:connector-curvature="0"
           d="m 70.26,1059 c 1.6922,-11.475 1.4242,-17.152 1.8555,-24.898" />
        <path
           id="path3890-1-7"
           sodipodi:nodetypes="cc"
           style="fill:none;stroke:#000000;stroke-width:4.06139994;stroke-linecap:round;stroke-linejoin:round"
           inkscape:connector-curvature="0"
           d="m 59.041,1059.5 c 0.0971,-7.9806 -0.59887,-11.754 -1.049,-16.831" />
        <path
           id="path3892-0-5"
           d="m 36.249,991.71 c -1.7026,12.092 -6.1967,31.682 -4.8107,38.213 1.185,-3.9899 8.356,-33.636 9.1333,-39.703 z"
           sodipodi:nodetypes="cccc"
           style="color:#000000;text-indent:0;text-transform:none;fill:#000000"
           inkscape:connector-curvature="0" />
      </g>
      <g
         id="g4671-5-9-2-3"
         transform="matrix(0.96353,0.26761,-0.26761,0.96353,839.03,474.35)">
        <path
           id="path4616-9-1-0-4"
           sodipodi:nodetypes="ccc"
           style="color:#000000;text-indent:0;text-transform:none;fill:#000000"
           inkscape:connector-curvature="0"
           d="m -442.9,1106.3 c 1.6396,-10.931 21.509,-18.813 31.663,-9.5656 -7.9924,-18.015 -37.025,-4.705 -31.663,9.5656 z" />
        <path
           id="path4616-2-2-2-1-6-7"
           sodipodi:nodetypes="ccc"
           style="color:#000000;text-indent:0;text-transform:none;fill:#000000"
           inkscape:connector-curvature="0"
           d="m -448.34,1100 c 3.5446,-18.27 27.964,-22.224 38.281,-11.565 -10.598,-22.61 -45.943,-8.1782 -38.281,11.565 z" />
      </g>
    </g>
  </g>
  <metadata
     id="metadata5920">
    <rdf:RDF>
      <cc:Work>
        <dc:format>image/svg+xml</dc:format>
        <dc:type
           rdf:resource="http://purl.org/dc/dcmitype/StillImage" />
        <cc:license
           rdf:resource="http://creativecommons.org/publicdomain/zero/1.0/" />
        <dc:publisher>
          <cc:Agent
             rdf:about="http://openclipart.org/">
            <dc:title>Openclipart</dc:title>
          </cc:Agent>
        </dc:publisher>
        <dc:title></dc:title>
        <dc:date>2011-09-15T11:19:02</dc:date>
        <dc:description>a dedicated set of mutlitouch functions icons in cartoon style</dc:description>
        <dc:source>https://openclipart.org/detail/160435/multitouch-interface-mouse-theme-1-finger-double-tap-by-benbois</dc:source>
        <dc:creator>
          <cc:Agent>
            <dc:title>BenBois</dc:title>
          </cc:Agent>
        </dc:creator>
        <dc:subject>
          <rdf:Bag>
            <rdf:li>android</rdf:li>
            <rdf:li>cartoon</rdf:li>
            <rdf:li>gesture</rdf:li>
            <rdf:li>ios</rdf:li>
            <rdf:li>ipad</rdf:li>
            <rdf:li>iphone</rdf:li>
            <rdf:li>mickey</rdf:li>
            <rdf:li>mouse</rdf:li>
            <rdf:li>multitouch</rdf:li>
            <rdf:li>tablet</rdf:li>
          </rdf:Bag>
        </dc:subject>
      </cc:Work>
      <cc:License
         rdf:about="http://creativecommons.org/publicdomain/zero/1.0/">
        <cc:permits
           rdf:resource="http://creativecommons.org/ns#Reproduction" />
        <cc:permits
           rdf:resource="http://creativecommons.org/ns#Distribution" />
        <cc:permits
           rdf:resource="http://creativecommons.org/ns#DerivativeWorks" />
      </cc:License>
    </rdf:RDF>
  </metadata>
</svg>
